# xmcd
#
# Track frame offsets:
#	150
#	17765
#	37298
#	62728
#	83265
#	107547
#	126991
#	144589
#	159407
#	174424
#	193770
#
# Disc length: 2786 seconds
#
# Revision: 1
# Processed by: cddbd v1.4PL0 Copyright (c) Steve Scherf et al.
# Submitted via: audiograbber 1.80.04
#
DISCID=8e0ae00b
DTITLE=Jeff Bisch - Forty-Watt stars
DYEAR=2002
DGENRE=Blues
TTITLE0=Forty-Watt Stars
TTITLE1=Devil on the Mountain
TTITLE2=Nightmare's of Job
TTITLE3=Daddy Swing me Higher
TTITLE4=Crucifix
TTITLE5=Wildcat of Mt. Gilead
TTITLE6=Obvious Blues
TTITLE7=Wonderin' if You'll Dance with Me
TTITLE8=One Last Tear
TTITLE9=Talkin' to a Wall
TTITLE10=Black Crow
EXTD=Pocket Knife Music\nP.O. Box 31001\nSanta Barbara, Ca\n93130\n\nwww.jeffbi
EXTD=sch.com
EXTT0=
EXTT1=
EXTT2=
EXTT3=
EXTT4=
EXTT5=
EXTT6=
EXTT7=
EXTT8=
EXTT9=
EXTT10=
PLAYORDER=
